<svg xmlns:dc="http://purl.org/dc/elements/1.1/" xmlns:cc="http://creativecommons.org/ns#" xmlns:rdf="http://www.w3.org/1999/02/22-rdf-syntax-ns#" xmlns:svg="http://www.w3.org/2000/svg" xmlns="http://www.w3.org/2000/svg" xmlns:sodipodi="http://sodipodi.sourceforge.net/DTD/sodipodi-0.dtd" xmlns:inkscape="http://www.inkscape.org/namespaces/inkscape" viewBox="0 0 100 100" version="1.1" x="0px" y="0px"><g><path style="opacity:1;fill:#000000;fill-opacity:1;stroke:none;stroke-width:2;stroke-linejoin:miter;stroke-miterlimit:4;stroke-dasharray:none;stroke-opacity:1" d="m 67.654307,26.130076 c -3.682912,9.239771 -8.545379,15.554313 -14.017579,20.357422 2.34688,0.964374 6.072915,-0.0033 9.552735,-0.625 -7.72649,9.709828 -12.32489,10.731052 -18.125,15.089844 4.19812,0.854386 10.647957,0.02083 17.679687,-1.25 -2.31838,2.537621 -4.315624,4.453317 -6.113281,5.986328 l 0,1.986328 -2.517578,0 c -1.359556,0.998994 -2.625991,1.818678 -3.833984,2.52539 l 2.501953,0 0,3.81836 c 3.839849,-0.301361 8.041141,-1.201914 12.283203,-2.173828 l 0,5.267578 -16.757813,0 -1.205078,-3.228516 4.910156,0 0,-2.765625 -5.943359,0 -1.533203,-4.111328 11.390625,0 0,-3.953125 -43.160156,0 0,3.953125 11.388672,0 -1.535157,4.111328 -5.941406,0 0,2.765625 4.910156,0 -1.205078,3.228516 -9.693359,0 0,4.642578 78.392578,0 0,-4.642578 -18.837891,0 0,-5.267578 c 7.51526,1.721849 14.940049,3.29544 20.355469,1.517578 -5.32141,-3.221916 -9.592996,-4.419652 -18.035156,-13.660156 7.03174,1.27083 13.481567,2.104386 17.679687,1.25 -5.80011,-4.358792 -10.3985,-5.380016 -18.125,-15.089844 3.47982,0.6217 7.205855,1.589374 9.552735,0.625 -5.4722,-4.803109 -10.33467,-11.117651 -14.017578,-20.357422 z m -39.449219,40.876953 12.28125,0 1.533203,4.111328 -15.347656,0 1.533203,-4.111328 z m -2.56836,6.876953 17.416016,0 1.205078,3.228516 -19.826172,0 1.205078,-3.228516 z"></path></g></svg>