<svg xmlns="http://www.w3.org/2000/svg" viewBox="0 0 100 100"><path d="M67.654 26.13c-3.683 9.24-8.545 15.554-14.017 20.357 2.347.965 6.073-.003 9.552-.625-7.726 9.71-12.324 10.732-18.125 15.09 4.199.855 10.648.021 17.68-1.25-2.318 2.538-4.315 4.454-6.113 5.987v1.986h-2.518A43.648 43.648 0 0 1 50.28 70.2h2.502v3.819c3.84-.302 8.041-1.202 12.283-2.174v5.267H48.307l-1.205-3.228h4.91v-2.766h-5.944l-1.533-4.111h11.39v-3.953h-43.16v3.953h11.39l-1.536 4.111h-5.941v2.766h4.91l-1.205 3.228h-9.694v4.643h78.393v-4.643H70.244v-5.267c7.515 1.722 14.94 3.295 20.356 1.517-5.322-3.221-9.593-4.42-18.036-13.66 7.032 1.271 13.482 2.105 17.68 1.25-5.8-4.358-10.398-5.38-18.125-15.09 3.48.622 7.206 1.59 9.553.625C76.2 41.684 71.337 35.37 67.654 26.13zM28.205 67.007h12.281l1.534 4.111H26.672l1.533-4.111zm-2.568 6.877h17.416l1.205 3.228H24.432l1.205-3.228z"/></svg>