<svg xmlns="http://www.w3.org/2000/svg" viewBox="0 0 22 26"><path d="M19 1h-2c0-.6-.4-1-1-1s-1 .4-1 1h-3c0-.6-.4-1-1-1s-1 .4-1 1H7c0-.6-.4-1-1-1S5 .4 5 1H3C1.3 1 0 2.3 0 4v19c0 1.7 1.3 3 3 3h16c1.7 0 3-1.3 3-3V4c0-1.7-1.3-3-3-3zM3 3h2c0 .6.4 1 1 1s1-.4 1-1h3c0 .6.4 1 1 1s1-.4 1-1h3c0 .6.4 1 1 1s1-.4 1-1h2c.6 0 1 .4 1 1v2.1H2V4c0-.6.4-1 1-1zm16 21H3c-.6 0-1-.4-1-1V8.1h18V23c0 .6-.4 1-1 1z"/><path d="M7 11H5c-.6 0-1 .4-1 1s.4 1 1 1h2c.6 0 1-.4 1-1s-.4-1-1-1zm5 0h-2c-.6 0-1 .4-1 1s.4 1 1 1h2c.6 0 1-.4 1-1s-.4-1-1-1zm5 0h-2c-.6 0-1 .4-1 1s.4 1 1 1h2c.6 0 1-.4 1-1s-.4-1-1-1zM7 15H5c-.6 0-1 .4-1 1s.4 1 1 1h2c.6 0 1-.4 1-1s-.4-1-1-1zm5 0h-2c-.6 0-1 .4-1 1s.4 1 1 1h2c.6 0 1-.4 1-1s-.4-1-1-1zm5 0h-2c-.6 0-1 .4-1 1s.4 1 1 1h2c.6 0 1-.4 1-1s-.4-1-1-1zM7 19H5c-.6 0-1 .4-1 1s.4 1 1 1h2c.6 0 1-.4 1-1s-.4-1-1-1zm5 0h-2c-.6 0-1 .4-1 1s.4 1 1 1h2c.6 0 1-.4 1-1s-.4-1-1-1zm5 0h-2c-.6 0-1 .4-1 1s.4 1 1 1h2c.6 0 1-.4 1-1s-.4-1-1-1z"/></svg>