<svg xmlns:dc="http://purl.org/dc/elements/1.1/" xmlns:cc="http://creativecommons.org/ns#" xmlns:rdf="http://www.w3.org/1999/02/22-rdf-syntax-ns#" xmlns:svg="http://www.w3.org/2000/svg" xmlns="http://www.w3.org/2000/svg" xmlns:sodipodi="http://sodipodi.sourceforge.net/DTD/sodipodi-0.dtd" xmlns:inkscape="http://www.inkscape.org/namespaces/inkscape" version="1.1" x="0px" y="0px" viewBox="0 0 100 100"><g transform="translate(0,-952.36218)"><path style="text-indent:0;text-transform:none;direction:ltr;block-progression:tb;baseline-shift:baseline;color:#000000;enable-background:accumulate;" d="m 77.833099,965.36696 c -0.70891,0.062 -1.36716,0.5347 -1.65361,1.1868 l -3.40082,7.5587 c -1.52354,-0.4696 -3.12592,-0.7184 -4.77363,-0.7184 -8.47487,0 -15.80926,6.7238 -16.8481,14.9922 -1.59227,0.105 -2.2283,1.1169 -2.21562,2.0928 0.11329,1.1783 1.14074,1.9175 2.24682,1.9052 l 3.65042,42.97784 -5.95924,0 c 1.4649,-1.8178 2.13363,-4.1242 2.15282,-5.9964 -1e-4,-1.0467 -0.95131,-1.9989 -1.99682,-1.999 l 0,-2.3426 c 0.77543,-0.4773 1.39297,-1.2148 1.68481,-1.9677 0.66979,-1.7278 0.3042,-3.2857 -0.1872,-4.6539 0.89596,-1.9086 0.39959,-4.6563 -1.49761,-5.6532 l 0,-2.3738 c 1.04551,-10e-5 1.99672,-0.9523 1.99682,-1.999 l 0,-4.9974 c 0,-2.6826 -1.34334,-5.00674 -3.21362,-6.55914 -1.87029,-1.5524 -4.28361,-2.4363 -6.77044,-2.4363 l -16.0681,0 c -2.47024,0 -4.86506,0.935 -6.708039,2.4988 -1.84298,1.5638 -3.18242,3.85804 -3.18242,6.49664 l 0,4.9974 c 1.1e-4,1.0467 0.95131,1.9989 1.99681,1.999 l 0,2.4987 c -1.82179,0.9724 -2.39349,3.5674 -1.62241,5.4347 -0.39293,1.093 -0.48264,2.2335 -0.1872,3.2796 0.47557,1.5689 1.61642,2.5808 1.80961,2.7798 l 0,3.1234 c -1.0455,10e-5 -1.9967,0.9523 -1.99681,1.9989 0,2.2986 0.60983,4.385 2.05921,5.8408 -1.29869,0.058 -3.00887,0.031 -4.24322,0.031 -1.045671,0.049 -1.952621,1.0458 -1.903611,2.0927 0.049,1.0468 1.045161,1.9545 2.090811,1.9052 l 73.882039,0 c 1.05495,0.015 2.02525,-0.9428 2.02525,-1.9989 0,-1.0562 -0.9703,-2.0139 -2.02525,-1.999 l -5.80323,0 3.65042,-42.97784 c 1.28548,-0.089 2.19261,-0.8412 2.18125,-1.999 0.0232,-1.2507 -1.06061,-1.98 -2.15005,-1.999 -0.66807,-5.3173 -3.95128,-9.9904 -8.45525,-12.6496 l 3.40082,-7.5274 c 0.59068,-1.2601 -0.5796,-2.9522 -1.96561,-2.8423 z m -9.82806,12.025 c 1.04938,0 2.09091,0.1656 3.08882,0.4373 l -4.77363,10.557 -11.10727,0 c 1.04478,-5.9912 6.64118,-10.9943 12.79208,-10.9943 z m 6.70804,2.0615 c 3.11861,2.0102 5.44708,5.2802 6.08403,8.9328 l -10.10886,0 z m -19.50012,12.9308 9.32886,0 -1.80961,3.9979 -7.17605,0 z m 13.66568,0 11.91847,0 -0.3432,3.9979 -13.38488,0 z m -47.79868,17.99074 23.96174,0 0,1.999 c -8.79125,0.03 -17.06832,0.01 -23.96174,0.031 z m -1.996819,9.9948 15.194499,0 c -1.46966,0.527 -2.9304,1.5154 -4.36803,1.8116 -1.01234,0.1961 -2.02306,0.1321 -3.93122,-0.4685 -3.65112,-1.0453 -5.18133,0.8846 -6.895249,-1.3431 z m 16.161699,0 11.63767,0 c 0.10429,0.6203 0.11786,1.1345 0.0936,1.2182 -1.1264,0.065 -1.77571,-0.2002 -2.83921,-0.1562 -1.95004,0.4911 -3.49164,0.7915 -4.68003,0.7496 -1.98123,-0.1806 -2.75342,-1.1193 -4.21203,-1.8116 z m -0.5616,4.1854 c 1.51629,0.9672 3.09406,1.5694 4.64883,1.6241 2.04557,-0.063 4.02846,-0.4333 5.70963,-0.7179 l 0,1.9052 c -8.48822,0.03 -16.04451,0.048 -23.96174,0.094 l 0,-1.6242 c 1.28622,0.1558 2.67594,0.063 4.08722,-0.2187 2.08343,0.6073 3.85338,0.8171 5.49123,0.4998 1.40672,-0.2726 2.66813,-0.8876 4.02483,-1.5617 z" fill="#000000" fill-opacity="1" stroke="none" marker="none" visibility="visible" display="inline" overflow="visible"></path></g></svg>