<svg xmlns="http://www.w3.org/2000/svg" viewBox="0 0 100 100"><path style="text-indent:0;text-transform:none;block-progression:tb" d="M77.833 13.005a2.039 2.039 0 0 0-1.654 1.187l-3.4 7.558a16.177 16.177 0 0 0-4.774-.718c-8.475 0-15.81 6.724-16.848 14.992-1.592.105-2.228 1.117-2.216 2.093.114 1.178 1.141 1.917 2.247 1.905L54.838 83H48.88c1.465-1.818 2.134-4.124 2.153-5.996 0-1.047-.951-2-1.997-2v-2.342c.776-.477 1.393-1.215 1.685-1.968.67-1.728.304-3.285-.187-4.654.896-1.908.4-4.656-1.498-5.653v-2.374c1.046 0 1.997-.952 1.997-1.999v-4.997c0-2.683-1.343-5.007-3.213-6.56a10.65 10.65 0 0 0-6.77-2.436H24.98c-2.47 0-4.865.935-6.708 2.5-1.843 1.563-3.182 3.857-3.182 6.496v4.997c0 1.047.95 2 1.996 2v2.498c-1.821.972-2.393 3.567-1.622 5.435-.393 1.093-.483 2.233-.187 3.28.475 1.568 1.616 2.58 1.81 2.78v3.123c-1.046 0-1.997.952-1.997 1.998 0 2.299.61 4.385 2.059 5.841-1.299.058-3.01.031-4.243.031-1.046.05-1.953 1.046-1.904 2.093.049 1.047 1.045 1.954 2.09 1.905h73.883C88.03 87.013 89 86.055 89 85s-.97-2.014-2.025-1.999h-5.803l3.65-42.978c1.285-.089 2.193-.84 2.181-1.999.023-1.25-1.06-1.98-2.15-1.999-.668-5.317-3.951-9.99-8.455-12.65l3.4-7.527c.591-1.26-.579-2.952-1.965-2.842zM68.005 25.03c1.05 0 2.09.165 3.089.437L66.32 36.024H55.213c1.045-5.991 6.641-10.994 12.792-10.994zm6.708 2.061c3.119 2.01 5.447 5.28 6.084 8.933H70.688zm-19.5 12.931h9.329l-1.81 3.998h-7.176zm13.666 0h11.918l-.343 3.998H67.069zM21.08 58.012h23.962v2c-8.792.03-17.069.01-23.962.03zm-1.997 9.996h15.195c-1.47.527-2.93 1.515-4.368 1.811-1.013.196-2.023.132-3.932-.468-3.65-1.046-5.18.884-6.895-1.343zm16.162 0h11.638c.104.62.117 1.134.093 1.218-1.126.065-1.776-.2-2.84-.156-1.95.49-3.49.791-4.68.75-1.98-.181-2.753-1.12-4.211-1.812zm-.562 4.185c1.517.967 3.094 1.57 4.65 1.624 2.045-.063 4.028-.433 5.709-.718v1.905c-8.489.03-16.045.048-23.962.094v-1.624c1.286.156 2.676.063 4.087-.218 2.084.607 3.854.817 5.491.5 1.407-.273 2.669-.888 4.025-1.562z" overflow="visible" color="#000"/></svg>