<svg xmlns="http://www.w3.org/2000/svg" fill="#6c757d" viewBox="0 0 100 100"><path d="M86.237 60.447c.079-.061.167-.119.259-.158-.04.018-.083.031-.123.044a99.325 99.325 0 0 0 4.184-3.749l.997-11.74a1.104 1.104 0 0 1 1.185-1.001 1.098 1.098 0 0 1 1.001 1.19l-3.552 41.821h3.714c1.403.06 1.403 2.136 0 2.196H6.098c-1.421-.043-1.421-2.154 0-2.197h3.719L6.26 45.032a1.098 1.098 0 0 1 1.001-1.19c.601-.048 1.133.4 1.185 1.001l.97 11.432.241.189c.272.224.68.549 1.207.957 1.023.803 2.498 1.932 4.294 3.258.004 0 .009.004.013.004.54.233 3.095 1.278 7.283 2.423 1.387.378 2.95.768 4.68 1.146l6.858-8.148a4.592 4.592 0 0 1 3.534-1.646 4.605 4.605 0 0 1 3.631 1.765l6.111 7.775a1.4 1.4 0 0 0 1.339.514c.004 0 .013-.004.018-.004l10.431-2.56a4.76 4.76 0 0 1 5.773 3.552c.097-.009.193-.022.29-.04a5.95 5.95 0 0 1-1.168-3.556 6.023 6.023 0 0 1 6.028-6.028 6.023 6.023 0 0 1 6.024 6.028c0 .518-.066 1.023-.189 1.506l.228-.053c.013-.009.031-.013.048-.018a120.01 120.01 0 0 0 10.282-3.007c-.043.04-.091.079-.135.115zm1.045 1.896v-.004a.717.717 0 0 1-.031.014.094.094 0 0 0 .031-.01zm.259-.132c-7.758 6.537-15.66 11.252-22.588 14.176v2.876a3.05 3.05 0 0 1-.887 2.147 3.046 3.046 0 0 1-2.147.887 3.03 3.03 0 0 1-3.029-3.034v-.698c-3.121.913-5.918 1.379-8.289 1.379-2.902 0-6.063-.707-9.338-1.844-3.271-1.137-6.651-2.709-9.957-4.478-6.599-3.525-12.89-7.841-17.298-11.072a.252.252 0 0 1-.083-.057c-.004-.004-.004-.004-.009-.004a172.877 172.877 0 0 1-4.241-3.205l2.344 27.571h16.038v-1.462c.06-1.403 2.136-1.403 2.196 0v1.462H33.8v-4.93c.06-1.403 2.136-1.403 2.196 0v4.93h36.018V83.39c.06-1.403 2.136-1.403 2.196 0v3.464h2.243V84.87c.06-1.403 2.136-1.403 2.196 0v1.984h2.318V80.19c0-.61.487-1.098 1.098-1.098.606 0 1.098.487 1.098 1.098v6.664h4.82l2.3-27.026a91.777 91.777 0 0 1-2.577 2.252.45.45 0 0 1-.07.061h-.004l-.004.009c-.004.004-.009.009-.013.009 0 .004 0 .004-.004.004h-.008v.004l-.004.004c-.023.014-.04.027-.058.04zm-40.232 4.356a3.6 3.6 0 0 1-1.765-1.212l-6.111-7.775a2.393 2.393 0 0 0-1.905-.926c-.689 0-1.365.281-1.853.86l-6.094 7.24c.834.154 1.703.312 2.599.457l3.872-4.324a1.927 1.927 0 0 1 1.449-.65c.316 0 .632.075.922.228.285.154.544.391.729.685l3.244 5.216c1.581.1 3.223.17 4.913.201zm12.947-.448c.048.013.092.022.132.04.075.03.148.069.215.114.031.018.057.04.083.061.013.009.026.022.04.035a.579.579 0 0 1 .07.07c.04.04.07.083.101.127.084.118.14.253.166.395l.013.079c.004.048.009.092.009.14v12.082c0 .237.092.439.246.593a.819.819 0 0 0 .588.246.822.822 0 0 0 .593-.246.822.822 0 0 0 .246-.593V66.571c0-.733-.294-1.361-.764-1.826a2.551 2.551 0 0 0-2.411-.663l-10.216 2.507c3.319 0 6.818-.149 10.48-.496.004-.004.013-.004.018-.004.04 0 .083-.004.123-.004.048 0 .097.004.145.009h.009a.438.438 0 0 1 .114.025zm21.327-1.971a117.55 117.55 0 0 1-4.926 1.313c-.013.009-.031.013-.048.018-2.504.61-5.026 1.138-7.564 1.585-.426.075-.856.145-1.278.215-.018.004-.04.004-.057.009-.917.151-1.836.289-2.757.413v6.296c5.146-2.254 10.862-5.538 16.63-9.849zm-7.775-2.244a3.808 3.808 0 0 0-1.12-2.709 3.817 3.817 0 0 0-2.709-1.124c-1.063 0-2.011.43-2.709 1.124a3.8 3.8 0 0 0-1.124 2.709c0 1.3.65 2.45 1.646 3.139.29-.044.58-.092.874-.145a114.55 114.55 0 0 0 4.5-.882c.41-.602.642-1.326.642-2.112zM58.89 76.273V68.38a112.7 112.7 0 0 1-17.201.141c-8.302-.58-15.067-1.998-19.813-3.293l-.378-.105a146.717 146.717 0 0 0 6.059 3.846c4.689 2.814 9.742 5.431 14.426 7.06 3.121 1.084 6.08 1.725 8.618 1.721 2.222.003 5.058-.48 8.289-1.477zM39.683 66.158l-2.221-3.56-2.687 3.003c1.558.215 3.196.399 4.908.557z" /></svg>