<svg xmlns="http://www.w3.org/2000/svg" xmlns:xlink="http://www.w3.org/1999/xlink" version="1.1" x="0px" y="0px" viewBox="0 0 64 64" style="enable-background:new 0 0 64 64;" xml:space="preserve"><g><path d="M63,33c0-8.271-5.832-15-13-15c-0.384,0-0.762,0.029-1.138,0.067C48.944,17.382,49,16.692,49,16c0-8.271-5.832-15-13-15   S23,7.729,23,16c0,7.221,4.445,13.263,10.343,14.683l-0.917,1.376C32.147,32.477,32,32.963,32,33.465   C32,34.862,33.138,36,34.535,36H36v27h2V38.76c1.631,4.506,5.112,7.904,9.343,8.923l-0.917,1.376   C46.147,49.477,46,49.963,46,50.465C46,51.862,47.138,53,48.535,53H49v10h2V53h0.465C52.862,53,54,51.862,54,50.465   c0-0.502-0.147-0.988-0.426-1.406l-0.917-1.376C58.555,46.263,63,40.221,63,33z M25,16c0-7.168,4.935-13,11-13s11,5.832,11,13   c0,0.835-0.079,1.667-0.213,2.483c-4.464,1.317-8.006,5.294-9.274,10.386C37.012,28.95,36.506,29,36,29C29.935,29,25,23.168,25,16z    M34,33.465c0-0.106,0.031-0.209,0.09-0.297l1.188-1.781C35.438,31.145,35.709,31,36,31c0.379,0,0.759-0.021,1.137-0.059   C37.056,31.616,37,32.3,37,33c0,0.338,0.025,0.668,0.044,1h-2.509C34.24,34,34,33.76,34,33.465z M50.723,48.387l1.188,1.781   c0.059,0.088,0.09,0.19,0.09,0.297C52,50.76,51.76,51,51.465,51h-2.93C48.24,51,48,50.76,48,50.465c0-0.106,0.031-0.209,0.09-0.297   l1.188-1.781C49.438,48.145,49.709,48,50,48S50.562,48.145,50.723,48.387z M50,46c-6.065,0-11-5.832-11-13s4.935-13,11-13   s11,5.832,11,13S56.065,46,50,46z"></path><path d="M41.709,28.714l1.891,0.654C44.728,26.107,47.24,24,50,24v-2C46.375,22,43.12,24.636,41.709,28.714z"></path><path d="M41,33h2c0-0.616,0.049-1.231,0.146-1.829l-1.975-0.32C41.058,31.554,41,32.277,41,33z"></path><path d="M27,16h2c0-0.626,0.051-1.248,0.149-1.85l-1.973-0.326C27.06,14.533,27,15.266,27,16z"></path><path d="M36,5c-3.595,0-6.84,2.605-8.265,6.639l1.885,0.666C30.76,9.082,33.264,7,36,7V5z"></path><rect x="10" y="38" width="2" height="2"></rect><rect x="18" y="38" width="2" height="2"></rect><path d="M19.895,44.447l-1.782-0.907C18.08,43.6,17.299,45,15,45s-3.08-1.4-3.112-1.46l-1.782,0.907C10.157,44.552,11.423,47,15,47   S19.843,44.552,19.895,44.447z"></path><path d="M21.124,50.336l-1.859-0.413c2.274-1.229,3.958-3.409,4.524-6.003C25.618,43.553,27,41.936,27,40   c0-1.035-0.405-1.97-1.052-2.681c0.181-0.484,2.186-6.09-0.652-10.223C23.43,24.378,19.965,23,15,23s-8.43,1.378-10.296,4.097   c-2.839,4.133-0.833,9.739-0.652,10.223C3.405,38.03,3,38.965,3,40c0,1.936,1.382,3.553,3.211,3.92   c0.566,2.594,2.25,4.774,4.525,6.003l-1.86,0.413c-2.26,0.503-4.122,2.086-4.959,4.183L1,60.778V63h28v-2.222l-2.895-6.208   C25.246,52.422,23.384,50.839,21.124,50.336z M13,50.768C13.644,50.915,14.312,51,15,51s1.356-0.085,2-0.232v0.731   C16.646,51.711,15.983,52,15,52c-0.986,0-1.65-0.291-2-0.499V50.768z M24,41.722v-3.443c0.595,0.347,1,0.985,1,1.722   S24.595,41.375,24,41.722z M6.357,28.222C7.83,26.084,10.738,25,15,25s7.17,1.084,8.643,3.222c1.918,2.783,0.961,6.699,0.567,7.985   c-0.07-0.022-0.138-0.047-0.21-0.065V34c0-1.729-1.254-5-6-5c-2.832,0-3.898,1.635-4.84,3.077C12.137,33.646,11.252,35,8,35H6   v1.142c-0.071,0.018-0.14,0.043-0.21,0.065C5.397,34.92,4.439,31.005,6.357,28.222z M5,40c0-0.737,0.405-1.375,1-1.722v3.443   C5.405,41.375,5,40.737,5,40z M8,42v-5c4.335,0,5.722-2.124,6.835-3.83C15.688,31.863,16.251,31,18,31c3.834,0,3.994,2.701,4,3v8   c0,3.859-3.141,7-7,7S8,45.859,8,42z M22,61v-5h-2v5H10v-5H8v5H3.104l2.648-5.688c0.613-1.534,1.943-2.665,3.558-3.023L11,51.914   v0.5l0.293,0.293C11.425,52.84,12.653,54,15,54s3.575-1.16,3.707-1.293L19,52.414v-0.501l1.69,0.376   c1.614,0.358,2.944,1.489,3.58,3.075L26.896,61H22z"></path></g></svg>