<svg xmlns="http://www.w3.org/2000/svg" viewBox="0 0 64 64"><path d="M63 33c0-8.271-5.832-15-13-15-.384 0-.762.029-1.138.067A17.4 17.4 0 0 0 49 16c0-8.271-5.832-15-13-15S23 7.729 23 16c0 7.221 4.445 13.263 10.343 14.683l-.917 1.376A2.524 2.524 0 0 0 32 33.465 2.539 2.539 0 0 0 34.535 36H36v27h2V38.76c1.631 4.506 5.112 7.904 9.343 8.923l-.917 1.376A2.524 2.524 0 0 0 46 50.465 2.539 2.539 0 0 0 48.535 53H49v10h2V53h.465A2.539 2.539 0 0 0 54 50.465c0-.502-.147-.988-.426-1.406l-.917-1.376C58.555 46.263 63 40.221 63 33zM25 16c0-7.168 4.935-13 11-13s11 5.832 11 13c0 .835-.079 1.667-.213 2.483-4.464 1.317-8.006 5.294-9.274 10.386A9.491 9.491 0 0 1 36 29c-6.065 0-11-5.832-11-13zm9 17.465c0-.106.031-.209.09-.297l1.188-1.781A.864.864 0 0 1 36 31c.379 0 .759-.021 1.137-.059A17.224 17.224 0 0 0 37 33c0 .338.025.668.044 1h-2.509a.536.536 0 0 1-.535-.535zm16.723 14.922l1.188 1.781a.537.537 0 0 1-.446.832h-2.93a.536.536 0 0 1-.445-.832l1.188-1.781a.868.868 0 0 1 1.445 0zM50 46c-6.065 0-11-5.832-11-13s4.935-13 11-13 11 5.832 11 13-4.935 13-11 13z"/><path d="M41.709 28.714l1.891.654C44.728 26.107 47.24 24 50 24v-2c-3.625 0-6.88 2.636-8.291 6.714zM41 33h2c0-.616.049-1.231.146-1.829l-1.975-.32A13.583 13.583 0 0 0 41 33zM27 16h2c0-.626.051-1.248.149-1.85l-1.973-.326A13.526 13.526 0 0 0 27 16zM36 5c-3.595 0-6.84 2.605-8.265 6.639l1.885.666C30.76 9.082 33.264 7 36 7V5zM10 38h2v2h-2zM18 38h2v2h-2zM19.895 44.447l-1.782-.907C18.08 43.6 17.299 45 15 45s-3.08-1.4-3.112-1.46l-1.782.907C10.157 44.552 11.423 47 15 47s4.843-2.448 4.895-2.553z"/><path d="M21.124 50.336l-1.859-.413a9.027 9.027 0 0 0 4.524-6.003A4.004 4.004 0 0 0 27 40a3.97 3.97 0 0 0-1.052-2.681c.181-.484 2.186-6.09-.652-10.223C23.43 24.378 19.965 23 15 23s-8.43 1.378-10.296 4.097c-2.839 4.133-.833 9.739-.652 10.223A3.966 3.966 0 0 0 3 40a4.004 4.004 0 0 0 3.211 3.92 9.025 9.025 0 0 0 4.525 6.003l-1.86.413c-2.26.503-4.122 2.086-4.959 4.183L1 60.778V63h28v-2.222l-2.895-6.208a6.998 6.998 0 0 0-4.981-4.234zM13 50.768c.644.147 1.312.232 2 .232s1.356-.085 2-.232v.731c-.354.212-1.017.501-2 .501-.986 0-1.65-.291-2-.499v-.733zm11-9.046v-3.443c.595.347 1 .985 1 1.722s-.405 1.374-1 1.721zm-17.643-13.5C7.83 26.084 10.738 25 15 25s7.17 1.084 8.643 3.222c1.918 2.783.961 6.699.567 7.985-.07-.022-.138-.047-.21-.065V34c0-1.729-1.254-5-6-5-2.832 0-3.898 1.635-4.84 3.077C12.137 33.646 11.252 35 8 35H6v1.142c-.071.018-.14.043-.21.065-.393-1.287-1.351-5.202.567-7.985zM5 40c0-.737.405-1.375 1-1.722v3.443A1.99 1.99 0 0 1 5 40zm3 2v-5c4.335 0 5.722-2.124 6.835-3.83C15.688 31.863 16.251 31 18 31c3.834 0 3.994 2.701 4 3v8c0 3.859-3.141 7-7 7s-7-3.141-7-7zm14 19v-5h-2v5H10v-5H8v5H3.104l2.648-5.688a4.993 4.993 0 0 1 3.558-3.023l1.69-.375v.5l.293.293C11.425 52.84 12.653 54 15 54s3.575-1.16 3.707-1.293l.293-.293v-.501l1.69.376c1.614.358 2.944 1.489 3.58 3.075L26.896 61H22z"/></svg>