<svg xmlns="http://www.w3.org/2000/svg" viewBox="0 0 82.139 49.889"><path d="M62.951 5.756c-6.465 0-12.183 3.225-15.66 8.14a20.878 20.878 0 0 1 2.293 5.129c2.277-5.123 7.407-8.711 13.367-8.711 8.067 0 14.63 6.563 14.63 14.633 0 8.066-6.562 14.63-14.63 14.63-5.958 0-11.087-3.585-13.366-8.707a20.798 20.798 0 0 1-2.291 5.132c3.48 4.91 9.195 8.133 15.657 8.133 10.58 0 19.188-8.607 19.188-19.188 0-10.584-8.608-19.191-19.188-19.191z"/><path d="M63.906 23.111v-3.014c.751.175 1.301.521 1.954.521.913 0 1.494-.779 1.494-1.65 0-1.438-2.057-2.016-3.448-2.153v-1.77h-1.805v1.76c-2.585.343-4.646 2.196-4.646 4.997 0 3.115 2.553 3.739 4.646 4.347v3.745c-1.23-.17-2.299-.825-3.219-.825-.914 0-1.494.713-1.494 1.584 0 1.869 2.893 2.379 4.713 2.448v1.744h1.805v-1.818c2.576-.386 4.608-2.249 4.608-5.053 0-3.341-2.515-4.249-4.608-4.863zm-1.805-.592c-.631-.259-1.035-.581-1.035-1.122 0-.657.439-1.104 1.035-1.31zm1.805 7.141v-2.905c.599.282.994.671.994 1.265 0 .715-.35 1.32-.994 1.64zM25.985 10.733h-6.941c-1.961 0-3.06 1.217-3.06 3.06v22.304c0 1.96 1.254 3.06 2.941 3.06 1.687 0 2.941-1.1 2.941-3.06v-6.693h4.354c5.373 0 9.806-3.567 9.806-9.293 0-5.609-4.274-9.378-10.041-9.378zm-.117 13.493h-1.263v-.003h-2.738v-8.311h4.001c2.469 0 4.04 1.803 4.04 4.156 0 2.356-1.571 4.158-4.04 4.158z"/><path d="M42.912 49.889H6.978A6.985 6.985 0 0 1 0 42.911V6.979C0 3.129 3.13 0 6.978 0h35.934a6.986 6.986 0 0 1 6.979 6.979v35.933a6.986 6.986 0 0 1-6.979 6.977zM6.978 5.199a1.78 1.78 0 0 0-1.777 1.78v35.933c0 .98.797 1.777 1.777 1.777h35.934a1.78 1.78 0 0 0 1.779-1.777V6.979c0-.981-.798-1.78-1.779-1.78z"/></svg>