<svg xmlns="http://www.w3.org/2000/svg" viewBox="0 0 100 100" id="svg3749"><g id="layer1"><path id="rating_5" d="M40.613 47.594l-3.839-.558-1.716-3.478a1 1 0 0 0-1.793 0l-1.718 3.478-3.839.558a1 1 0 0 0-.554 1.706l2.778 2.707-.656 3.824a1 1 0 0 0 1.451 1.054l3.434-1.805 3.434 1.805a1 1 0 0 0 1.45-1.054l-.655-3.824 2.778-2.707a1 1 0 0 0-.555-1.706zm-3.996 3.348c-.235.23-.343.56-.287.885l.402 2.345-2.106-1.107a.999.999 0 0 0-.93 0l-2.106 1.107.402-2.345a1.003 1.003 0 0 0-.287-.885L30 49.282l2.354-.342a1 1 0 0 0 .753-.547l1.053-2.133 1.052 2.133a1 1 0 0 0 .754.547l2.354.342zm-11.843-3.348l-3.838-.558-1.718-3.478a1.041 1.041 0 0 0-1.793 0l-1.716 3.478-3.84.558a1 1 0 0 0-.554 1.706l2.778 2.707-.656 3.824a1 1 0 0 0 1.451 1.054l3.434-1.805 3.433 1.805a1 1 0 0 0 1.452-1.054l-.656-3.824 2.778-2.707a1 1 0 0 0-.555-1.706zm-3.996 3.348c-.235.23-.343.56-.288.885l.403 2.345-2.106-1.107a1 1 0 0 0-.93 0l-2.106 1.107.402-2.345a1.003 1.003 0 0 0-.287-.885l-1.704-1.66 2.354-.342a1 1 0 0 0 .754-.547l1.052-2.133 1.053 2.133a1 1 0 0 0 .753.547l2.353.342zm51.514-3.348l-3.84-.558-1.717-3.478a1.041 1.041 0 0 0-1.793 0l-1.716 3.478-3.84.558a1 1 0 0 0-.554 1.706l2.778 2.707-.656 3.824a1 1 0 0 0 1.451 1.054l3.434-1.805 3.434 1.805a1 1 0 0 0 1.451-1.054l-.656-3.824 2.778-2.707a1 1 0 0 0-.555-1.706zm-3.997 3.348c-.235.23-.342.56-.287.885l.402 2.345-2.106-1.107a1 1 0 0 0-.93 0l-2.106 1.107.402-2.345a1.003 1.003 0 0 0-.287-.885l-1.704-1.66 2.354-.342a1 1 0 0 0 .754-.547l1.052-2.133 1.053 2.133a1 1 0 0 0 .753.547l2.354.342zm19.835-3.348l-3.838-.558-1.717-3.478a1 1 0 0 0-1.793 0l-1.718 3.478-3.838.558a1 1 0 0 0-.555 1.706l2.778 2.707-.656 3.824a1 1 0 0 0 1.452 1.054l3.433-1.805 3.434 1.805a1 1 0 0 0 1.451-1.054l-.656-3.824 2.778-2.707a1 1 0 0 0-.555-1.706zm-3.996 3.348c-.235.23-.342.56-.287.885l.402 2.345-2.105-1.107a.999.999 0 0 0-.931 0l-2.106 1.107.403-2.345a1.002 1.002 0 0 0-.288-.885l-1.703-1.66 2.353-.342a1 1 0 0 0 .753-.547l1.053-2.133 1.053 2.133a1 1 0 0 0 .753.547l2.354.342zm-27.682-3.348l-3.838-.558-1.718-3.478a1.04 1.04 0 0 0-1.793 0l-1.717 3.478-3.838.558a1 1 0 0 0-.555 1.706l2.778 2.707-.656 3.824a1 1 0 0 0 1.451 1.054L50 55.08l3.434 1.805a1 1 0 0 0 1.45-1.054l-.655-3.824 2.778-2.707a1 1 0 0 0-.555-1.706zm-3.996 3.348c-.235.23-.343.56-.288.885l.403 2.345-2.106-1.107a1 1 0 0 0-.93 0l-2.106 1.107.403-2.345a1.003 1.003 0 0 0-.288-.885l-1.704-1.66 2.354-.342a.999.999 0 0 0 .753-.547L50 46.259l1.053 2.134c.146.295.427.5.753.547l2.354.342z"/><path d="M92 37H8a3.003 3.003 0 0 0-3 3v20a3.003 3.003 0 0 0 3 3h34.887l6.263 10.084a1 1 0 0 0 1.7 0L57.112 63H92a3.003 3.003 0 0 0 3-3V40a3.003 3.003 0 0 0-3-3zm1 23c0 .552-.448 1-1 1H57.112a1.987 1.987 0 0 0-1.698.944L50 70.661l-5.414-8.717A1.986 1.986 0 0 0 42.888 61H8c-.552 0-1-.448-1-1V40c0-.552.448-1 1-1h84c.552 0 1 .448 1 1z" id="bubble"/><path d="M24.774 47.594l-3.838-.558-1.718-3.478a1.041 1.041 0 0 0-1.793 0l-1.716 3.478-3.84.558a1 1 0 0 0-.554 1.706l2.778 2.707-.656 3.824a1 1 0 0 0 1.451 1.054l3.434-1.805 3.433 1.805a1 1 0 0 0 1.452-1.054l-.656-3.824 2.778-2.707a1 1 0 0 0-.555-1.706zm-3.996 3.348c-.235.23-.343.56-.288.885l.403 2.345-2.106-1.107a1 1 0 0 0-.93 0l-2.106 1.107.402-2.345a1.003 1.003 0 0 0-.287-.885l-1.704-1.66 2.354-.342a1 1 0 0 0 .754-.547l1.052-2.133 1.053 2.133a1 1 0 0 0 .753.547l2.353.342z" id="rating_1"/><path d="M40.613 47.594l-3.839-.558-1.716-3.478a1 1 0 0 0-1.793 0l-1.718 3.478-3.839.558a1 1 0 0 0-.554 1.706l2.778 2.707-.656 3.824a1 1 0 0 0 1.451 1.054l3.434-1.805 3.434 1.805a1 1 0 0 0 1.45-1.054l-.655-3.824 2.778-2.707a1 1 0 0 0-.555-1.706zm-3.996 3.348c-.235.23-.343.56-.287.885l.402 2.345-2.106-1.107a.999.999 0 0 0-.93 0l-2.106 1.107.402-2.345a1.003 1.003 0 0 0-.287-.885L30 49.282l2.354-.342a1 1 0 0 0 .753-.547l1.053-2.133 1.052 2.133a1 1 0 0 0 .754.547l2.354.342zm-11.843-3.348l-3.838-.558-1.718-3.478a1.041 1.041 0 0 0-1.793 0l-1.716 3.478-3.84.558a1 1 0 0 0-.554 1.706l2.778 2.707-.656 3.824a1 1 0 0 0 1.451 1.054l3.434-1.805 3.433 1.805a1 1 0 0 0 1.452-1.054l-.656-3.824 2.778-2.707a1 1 0 0 0-.555-1.706zm-3.996 3.348c-.235.23-.343.56-.288.885l.403 2.345-2.106-1.107a1 1 0 0 0-.93 0l-2.106 1.107.402-2.345a1.003 1.003 0 0 0-.287-.885l-1.704-1.66 2.354-.342a1 1 0 0 0 .754-.547l1.052-2.133 1.053 2.133a1 1 0 0 0 .753.547l2.353.342z" id="rating_2"/><path d="M40.613 47.594l-3.839-.558-1.716-3.478a1 1 0 0 0-1.793 0l-1.718 3.478-3.839.558a1 1 0 0 0-.554 1.706l2.778 2.707-.656 3.824a1 1 0 0 0 1.451 1.054l3.434-1.805 3.434 1.805a1 1 0 0 0 1.45-1.054l-.655-3.824 2.778-2.707a1 1 0 0 0-.555-1.706zm-3.996 3.348c-.235.23-.343.56-.287.885l.402 2.345-2.106-1.107a.999.999 0 0 0-.93 0l-2.106 1.107.402-2.345a1.003 1.003 0 0 0-.287-.885L30 49.282l2.354-.342a1 1 0 0 0 .753-.547l1.053-2.133 1.052 2.133a1 1 0 0 0 .754.547l2.354.342zm-11.843-3.348l-3.838-.558-1.718-3.478a1.041 1.041 0 0 0-1.793 0l-1.716 3.478-3.84.558a1 1 0 0 0-.554 1.706l2.778 2.707-.656 3.824a1 1 0 0 0 1.451 1.054l3.434-1.805 3.433 1.805a1 1 0 0 0 1.452-1.054l-.656-3.824 2.778-2.707a1 1 0 0 0-.555-1.706zm-3.996 3.348c-.235.23-.343.56-.288.885l.403 2.345-2.106-1.107a1 1 0 0 0-.93 0l-2.106 1.107.402-2.345a1.003 1.003 0 0 0-.287-.885l-1.704-1.66 2.354-.342a1 1 0 0 0 .754-.547l1.052-2.133 1.053 2.133a1 1 0 0 0 .753.547l2.353.342zm51.514-3.348l-3.84-.558-1.717-3.478a1.041 1.041 0 0 0-1.793 0l-1.716 3.478-3.84.558a1 1 0 0 0-.554 1.706l2.778 2.707-.656 3.824a1 1 0 0 0 1.451 1.054l3.434-1.805 3.434 1.805a1 1 0 0 0 1.451-1.054l-.656-3.824 2.778-2.707a1 1 0 0 0-.555-1.706zm-3.997 3.348c-.235.23-.342.56-.287.885l.402 2.345-2.106-1.107a1 1 0 0 0-.93 0l-2.106 1.107.402-2.345a1.003 1.003 0 0 0-.287-.885l-1.704-1.66 2.354-.342a1 1 0 0 0 .754-.547l1.052-2.133 1.053 2.133a1 1 0 0 0 .753.547l2.354.342zm-11.843-3.348l-3.838-.558-1.718-3.478a1.04 1.04 0 0 0-1.793 0l-1.717 3.478-3.838.558a1 1 0 0 0-.555 1.706l2.778 2.707-.656 3.824a1 1 0 0 0 1.451 1.054L50 55.08l3.434 1.805a1 1 0 0 0 1.45-1.054l-.655-3.824 2.778-2.707a1 1 0 0 0-.555-1.706zm-3.996 3.348c-.235.23-.343.56-.288.885l.403 2.345-2.106-1.107a1 1 0 0 0-.93 0l-2.106 1.107.403-2.345a1.003 1.003 0 0 0-.288-.885l-1.704-1.66 2.354-.342a.999.999 0 0 0 .753-.547L50 46.259l1.053 2.134c.146.295.427.5.753.547l2.354.342z" id="rating_4"/><path d="M40.613 47.594l-3.839-.558-1.716-3.478a1 1 0 0 0-1.793 0l-1.718 3.478-3.839.558a1 1 0 0 0-.554 1.706l2.778 2.707-.656 3.824a1 1 0 0 0 1.451 1.054l3.434-1.805 3.434 1.805a1 1 0 0 0 1.45-1.054l-.655-3.824 2.778-2.707a1 1 0 0 0-.555-1.706zm-3.996 3.348c-.235.23-.343.56-.287.885l.402 2.345-2.106-1.107a.999.999 0 0 0-.93 0l-2.106 1.107.402-2.345a1.003 1.003 0 0 0-.287-.885L30 49.282l2.354-.342a1 1 0 0 0 .753-.547l1.053-2.133 1.052 2.133a1 1 0 0 0 .754.547l2.354.342zm-11.843-3.348l-3.838-.558-1.718-3.478a1.041 1.041 0 0 0-1.793 0l-1.716 3.478-3.84.558a1 1 0 0 0-.554 1.706l2.778 2.707-.656 3.824a1 1 0 0 0 1.451 1.054l3.434-1.805 3.433 1.805a1 1 0 0 0 1.452-1.054l-.656-3.824 2.778-2.707a1 1 0 0 0-.555-1.706zm-3.996 3.348c-.235.23-.343.56-.288.885l.403 2.345-2.106-1.107a1 1 0 0 0-.93 0l-2.106 1.107.402-2.345a1.003 1.003 0 0 0-.287-.885l-1.704-1.66 2.354-.342a1 1 0 0 0 .754-.547l1.052-2.133 1.053 2.133a1 1 0 0 0 .753.547l2.353.342zm51.514-3.348l-3.84-.558-1.717-3.478a1.041 1.041 0 0 0-1.793 0l-1.716 3.478-3.84.558a1 1 0 0 0-.554 1.706l2.778 2.707-.656 3.824a1 1 0 0 0 1.451 1.054l3.434-1.805 3.434 1.805a1 1 0 0 0 1.451-1.054l-.656-3.824 2.778-2.707a1 1 0 0 0-.555-1.706zm-3.997 3.348c-.235.23-.342.56-.287.885l.402 2.345-2.106-1.107a1 1 0 0 0-.93 0l-2.106 1.107.402-2.345a1.003 1.003 0 0 0-.287-.885l-1.704-1.66 2.354-.342a1 1 0 0 0 .754-.547l1.052-2.133 1.053 2.133a1 1 0 0 0 .753.547l2.354.342zm-11.843-3.348l-3.838-.558-1.718-3.478a1.04 1.04 0 0 0-1.793 0l-1.717 3.478-3.838.558a1 1 0 0 0-.555 1.706l2.778 2.707-.656 3.824a1 1 0 0 0 1.451 1.054L50 55.08l3.434 1.805a1 1 0 0 0 1.45-1.054l-.655-3.824 2.778-2.707a1 1 0 0 0-.555-1.706zm-3.996 3.348c-.235.23-.343.56-.288.885l.403 2.345-2.106-1.107a1 1 0 0 0-.93 0l-2.106 1.107.403-2.345a1.003 1.003 0 0 0-.288-.885l-1.704-1.66 2.354-.342a.999.999 0 0 0 .753-.547L50 46.259l1.053 2.134c.146.295.427.5.753.547l2.354.342z" id="rating_3"/></g></svg>