<svg xmlns="http://www.w3.org/2000/svg" xmlns:xlink="http://www.w3.org/1999/xlink" version="1.1" x="0px" y="0px" viewBox="0 0 100 100" enable-background="new 0 0 100 100" xml:space="preserve"><g><path d="M23.923,22.962c4.952,0,8.981-4.028,8.981-8.98C32.904,9.029,28.875,5,23.923,5c-4.953,0-8.984,4.029-8.984,8.981   C14.938,18.934,18.97,22.962,23.923,22.962z M23.923,7.715c3.455,0,6.265,2.811,6.265,6.267c0,3.454-2.81,6.265-6.265,6.265   c-3.456,0-6.268-2.811-6.268-6.265C17.655,10.526,20.467,7.715,23.923,7.715z"></path><path d="M6.798,57.349v0.004c0,0.098,0.012,0.192,0.031,0.285c0.196,2.343,2.288,4.201,4.865,4.201c0.787,0,1.521-0.189,2.18-0.497   v27.903c0,3.174,2.56,5.755,5.705,5.755c1.739,0,3.296-0.792,4.343-2.033C24.97,94.208,26.526,95,28.266,95   c3.144,0,5.703-2.581,5.703-5.755l-0.021-27.916c0.667,0.315,1.411,0.51,2.209,0.51c2.549,0,4.624-1.826,4.852-4.141   c0.029-0.112,0.05-0.227,0.05-0.347l-0.006-18.468c0-9.494-8.622-14.461-17.14-14.461c-8.245,0-17.12,4.526-17.12,14.462   l0.006,18.338c0,0.021-0.006,0.043-0.006,0.065C6.792,57.309,6.798,57.328,6.798,57.349z M23.912,27.138   c6.947,0,14.424,3.676,14.424,11.747l0.005,18.348c0,0.019-0.005,0.036-0.005,0.056c0,1.012-0.978,1.834-2.188,1.834   c-1.202,0-2.18-0.822-2.18-1.834c0-0.071-0.011-0.14-0.021-0.207V39.032c0-0.75-0.607-1.358-1.357-1.358s-1.358,0.608-1.358,1.358   l0.021,50.213c0,1.676-1.34,3.039-2.986,3.039c-1.636,0-2.964-1.343-2.984-3.002c0-0.012,0.002-0.024,0.002-0.037L25.28,57.807   c0-0.75-0.608-1.357-1.358-1.357s-1.358,0.607-1.358,1.357l-0.003,31.438c0,0.013,0.002,0.025,0.002,0.037   c-0.021,1.659-1.349,3.002-2.983,3.002c-1.647,0-2.989-1.363-2.989-3.039V39.034c0-0.75-0.607-1.358-1.357-1.358   s-1.358,0.608-1.358,1.358v18.254c0,1.012-0.978,1.834-2.187,1.834c-1.18,0-2.137-0.793-2.173-1.779L9.508,38.884   C9.508,30.813,16.975,27.138,23.912,27.138z"></path><path d="M72.602,23.021c4.97,0,9.013-4.042,9.013-9.01c0-4.968-4.043-9.01-9.013-9.01c-4.968,0-9.009,4.042-9.009,9.01   C63.593,18.979,67.634,23.021,72.602,23.021z M72.602,7.715c3.472,0,6.296,2.824,6.296,6.295c0,3.471-2.824,6.295-6.296,6.295   c-3.471,0-6.293-2.824-6.293-6.295C66.309,10.54,69.131,7.715,72.602,7.715z"></path><path d="M55.555,57.661l0.619,0.145c0.402,0.094,0.803,0.139,1.195,0.139c0.218,0,0.432-0.021,0.644-0.049l-3.611,13.998   c-0.105,0.407-0.017,0.84,0.241,1.171c0.257,0.332,0.653,0.526,1.073,0.526h7.839V85.24v4.528v0.789   c0,0.306,0.105,0.585,0.275,0.812c0.678,2.1,2.618,3.631,4.928,3.631c1.528,0,2.891-0.678,3.844-1.735   C73.555,94.322,74.917,95,76.444,95c2.31,0,4.249-1.53,4.927-3.629c0.172-0.228,0.277-0.507,0.277-0.813V73.591h7.838   c0.42,0,0.815-0.193,1.073-0.525c0.257-0.332,0.347-0.765,0.241-1.171l-3.598-13.998c0.208,0.027,0.417,0.048,0.631,0.048   c0.393,0,0.793-0.045,1.194-0.139l0.621-0.145c1.24-0.291,2.278-1.047,2.922-2.129c0.637-1.074,0.805-2.335,0.47-3.548   l-0.521-1.909c-1.638-6.021-4.378-16.098-7.194-21.673c-0.001-0.002-0.002-0.005-0.003-0.007c-1.242-2.461-4.637-3.933-7.201-3.933   H67.083c-2.565,0-5.959,1.472-7.2,3.932c-2.815,5.569-5.558,15.645-7.195,21.665l-0.525,1.924c-0.335,1.214-0.168,2.474,0.47,3.548   C53.275,56.613,54.313,57.37,55.555,57.661z M54.78,52.705l0.527-1.933c1.611-5.921,4.308-15.83,6.999-21.154   c0.704-1.397,3.103-2.441,4.776-2.441h11.038c1.674,0,4.071,1.044,4.776,2.44c0,0.001,0.001,0.001,0.001,0.002   c2.692,5.327,5.39,15.244,7.001,21.168l0.523,1.917c0.137,0.495,0.07,1.007-0.187,1.44c-0.263,0.441-0.69,0.751-1.206,0.871   l-0.621,0.146c-0.794,0.188-1.592-0.025-2.03-0.473l-4.022-15.65c-0.186-0.726-0.922-1.162-1.652-0.977   c-0.727,0.187-1.164,0.927-0.977,1.653l8.008,31.16H80.29c-0.75,0-1.358,0.608-1.358,1.358l-0.001,17.535   c0,1.388-1.114,2.516-2.486,2.516c-1.364,0-2.475-1.118-2.484-2.497c0-0.006,0.002-0.012,0.002-0.019L73.96,72.233   c0-0.75-0.608-1.358-1.358-1.358s-1.358,0.608-1.358,1.358l-0.002,17.535c0,0.007,0.002,0.013,0.002,0.019   c-0.01,1.379-1.12,2.497-2.485,2.497c-1.371,0-2.486-1.128-2.486-2.516V72.233c0-0.75-0.608-1.358-1.358-1.358h-7.445l8.04-31.159   c0.188-0.726-0.249-1.466-0.976-1.653c-0.726-0.189-1.466,0.249-1.653,0.976l-4.032,15.625c-0.433,0.467-1.241,0.688-2.054,0.498   l-0.62-0.146c-0.515-0.12-0.944-0.43-1.206-0.872C54.71,53.712,54.644,53.2,54.78,52.705z"></path></g></svg>