<svg xmlns="http://www.w3.org/2000/svg" viewBox="0 0 100 100"><path d="M23.923 22.962c4.952 0 8.981-4.028 8.981-8.98C32.904 9.029 28.875 5 23.923 5c-4.953 0-8.984 4.029-8.984 8.981-.001 4.953 4.031 8.981 8.984 8.981zm0-15.247a6.273 6.273 0 0 1 6.265 6.267 6.272 6.272 0 0 1-6.265 6.265 6.274 6.274 0 0 1-6.268-6.265 6.274 6.274 0 0 1 6.268-6.267zM6.798 57.349v.004c0 .098.012.192.031.285.196 2.343 2.288 4.201 4.865 4.201.787 0 1.521-.189 2.18-.497v27.903c0 3.174 2.56 5.755 5.705 5.755a5.673 5.673 0 0 0 4.343-2.033A5.675 5.675 0 0 0 28.266 95c3.144 0 5.703-2.581 5.703-5.755l-.021-27.916c.667.315 1.411.51 2.209.51 2.549 0 4.624-1.826 4.852-4.141.029-.112.05-.227.05-.347l-.006-18.468c0-9.494-8.622-14.461-17.14-14.461-8.245 0-17.12 4.526-17.12 14.462l.006 18.338c0 .021-.006.043-.006.065-.001.022.005.041.005.062zm17.114-30.211c6.947 0 14.424 3.676 14.424 11.747l.005 18.348c0 .019-.005.036-.005.056 0 1.012-.978 1.834-2.188 1.834-1.202 0-2.18-.822-2.18-1.834 0-.071-.011-.14-.021-.207v-18.05a1.357 1.357 0 1 0-2.715 0l.021 50.213c0 1.676-1.34 3.039-2.986 3.039-1.636 0-2.964-1.343-2.984-3.002l.002-.037-.005-31.438a1.357 1.357 0 0 0-2.716 0l-.003 31.438.002.037c-.021 1.659-1.349 3.002-2.983 3.002-1.647 0-2.989-1.363-2.989-3.039V39.034a1.357 1.357 0 1 0-2.715 0v18.254c0 1.012-.978 1.834-2.187 1.834-1.18 0-2.137-.793-2.173-1.779l-.008-18.459c0-8.071 7.467-11.746 14.404-11.746zM72.602 23.021c4.97 0 9.013-4.042 9.013-9.01s-4.043-9.01-9.013-9.01c-4.968 0-9.009 4.042-9.009 9.01s4.041 9.01 9.009 9.01zm0-15.306a6.302 6.302 0 0 1 6.296 6.295 6.302 6.302 0 0 1-6.296 6.295 6.3 6.3 0 0 1-6.293-6.295 6.301 6.301 0 0 1 6.293-6.295zM55.555 57.661l.619.145c.402.094.803.139 1.195.139.218 0 .432-.021.644-.049l-3.611 13.998a1.354 1.354 0 0 0 1.314 1.697h7.839v16.966c0 .306.105.585.275.812.678 2.1 2.618 3.631 4.928 3.631 1.528 0 2.891-.678 3.844-1.735.953 1.057 2.315 1.735 3.842 1.735 2.31 0 4.249-1.53 4.927-3.629.172-.228.277-.507.277-.813V73.591h7.838a1.357 1.357 0 0 0 1.314-1.696l-3.598-13.998c.208.027.417.048.631.048.393 0 .793-.045 1.194-.139l.621-.145a4.585 4.585 0 0 0 2.922-2.129 4.533 4.533 0 0 0 .47-3.548l-.521-1.909c-1.638-6.021-4.378-16.098-7.194-21.673l-.003-.007c-1.242-2.461-4.637-3.933-7.201-3.933H67.083c-2.565 0-5.959 1.472-7.2 3.932-2.815 5.569-5.558 15.645-7.195 21.665l-.525 1.924a4.528 4.528 0 0 0 .47 3.548 4.577 4.577 0 0 0 2.922 2.13zm-.775-4.956l.527-1.933c1.611-5.921 4.308-15.83 6.999-21.154.704-1.397 3.103-2.441 4.776-2.441H78.12c1.674 0 4.071 1.044 4.776 2.44l.001.002c2.692 5.327 5.39 15.244 7.001 21.168l.523 1.917c.137.495.07 1.007-.187 1.44-.263.441-.69.751-1.206.871l-.621.146c-.794.188-1.592-.025-2.03-.473l-4.022-15.65a1.356 1.356 0 1 0-2.629.676l8.008 31.16H80.29c-.75 0-1.358.608-1.358 1.358l-.001 17.535c0 1.388-1.114 2.516-2.486 2.516-1.364 0-2.475-1.118-2.484-2.497l.002-.019-.003-17.534a1.358 1.358 0 0 0-2.716 0l-.002 17.535.002.019c-.01 1.379-1.12 2.497-2.485 2.497-1.371 0-2.486-1.128-2.486-2.516V72.233c0-.75-.608-1.358-1.358-1.358H57.47l8.04-31.159a1.356 1.356 0 0 0-.976-1.653 1.355 1.355 0 0 0-1.653.976l-4.032 15.625c-.433.467-1.241.688-2.054.498l-.62-.146a1.88 1.88 0 0 1-1.206-.872 1.831 1.831 0 0 1-.189-1.439z"/></svg>