<svg xmlns:x="http://ns.adobe.com/Extensibility/1.0/" xmlns:i="http://ns.adobe.com/AdobeIllustrator/10.0/" xmlns:graph="http://ns.adobe.com/Graphs/1.0/" xmlns="http://www.w3.org/2000/svg" xmlns:xlink="http://www.w3.org/1999/xlink" version="1.1" x="0px" y="0px" viewBox="0 0 100 100" enable-background="new 0 0 100 100" xml:space="preserve"><metadata><sfw xmlns="http://ns.adobe.com/SaveForWeb/1.0/"><slices></slices><sliceSourceBounds y="13.5" x="-8128" width="16383" height="72.999" bottomLeftOrigin="true"></sliceSourceBounds><optimizationSettings><targetSettings targetSettingsID="0" fileFormat="GIFFormat"><GIFFormat transparency="true" lossy="0" matteColor="#FFFFFF" interlaced="false" noMatteColor="false" webShiftPercent="0" includeCaption="false" reductionAlgorithm="selective" ditherAlgorithm="diffusion" ditherPercent="100" numColors="256" rolloverMasterPalette="false" autoReduce="false"><colorTable isExact="false"></colorTable><lockedColors></lockedColors><colorShiftEntries></colorShiftEntries></GIFFormat></targetSettings></optimizationSettings></sfw></metadata><g><path d="M91.5,35v-0.272l-7.596-20.255c-0.256-0.684-0.96-1.07-1.654-0.951c-0.071-0.011-64.107,0.012-64.256,0.064   c-0.767-0.269-1.611,0.121-1.898,0.886L8.5,34.728V35c0,3.966,2.018,7.469,5.081,9.537C13.532,44.684,13.5,44.837,13.5,45v38.5H10   c-0.829,0-1.5,0.672-1.5,1.5s0.671,1.5,1.5,1.5h80c0.828,0,1.5-0.672,1.5-1.5s-0.672-1.5-1.5-1.5h-3.5V45   c0-0.163-0.032-0.316-0.08-0.463C89.482,42.469,91.5,38.966,91.5,35z M88.496,35.261C88.357,39.828,84.6,43.5,80,43.5   c-4.687,0-8.5-3.813-8.5-8.5c0-0.032-0.008-0.063-0.01-0.095c-0.002-0.031,0.002-0.061-0.002-0.091L69.199,16.5h12.262   L88.496,35.261z M33.824,16.5H48.5V35c0,4.687-3.813,8.5-8.5,8.5c-4.665,0-8.461-3.778-8.497-8.435L33.824,16.5z M51.5,16.5h14.676   l2.321,18.565C68.461,39.722,64.664,43.5,60,43.5c-4.687,0-8.5-3.813-8.5-8.5V16.5z M11.504,35.261L18.54,16.5h12.261   l-2.289,18.314c-0.004,0.031,0,0.061-0.002,0.092C28.507,34.938,28.5,34.968,28.5,35c0,4.687-3.813,8.5-8.5,8.5   C15.4,43.5,11.643,39.828,11.504,35.261z M64,83.5v-32h14.5v32H64z M83.5,83.5h-2V51c0-1.378-1.121-2.5-2.5-2.5H63.5   c-1.379,0-2.5,1.122-2.5,2.5v32.5H16.5V45.951c1.104,0.354,2.279,0.549,3.5,0.549c4.284,0,8.021-2.359,10-5.842   c1.979,3.483,5.716,5.842,10,5.842s8.021-2.359,10-5.842c1.979,3.483,5.716,5.842,10,5.842s8.021-2.359,10-5.842   c1.979,3.483,5.716,5.842,10,5.842c1.221,0,2.396-0.195,3.5-0.549V83.5z"></path><path d="M54,51H23.5c-1.378,0-2.5,1.121-2.5,2.5V74c0,1.379,1.122,2.5,2.5,2.5H54c1.379,0,2.5-1.121,2.5-2.5V53.5   C56.5,52.121,55.379,51,54,51z M53.5,73.5H24V54h29.5V73.5z"></path><path d="M70,66h-2.5c-0.828,0-1.5,0.672-1.5,1.5s0.672,1.5,1.5,1.5H70c0.828,0,1.5-0.672,1.5-1.5S70.828,66,70,66z"></path><path d="M49.293,60.707C49.488,60.902,49.744,61,50,61s0.512-0.098,0.707-0.293c0.391-0.391,0.391-1.023,0-1.414l-2.5-2.5   c-0.391-0.391-1.023-0.391-1.414,0s-0.391,1.023,0,1.414L49.293,60.707z"></path><path d="M49.293,65.707C49.488,65.902,49.744,66,50,66s0.512-0.098,0.707-0.293c0.391-0.391,0.391-1.023,0-1.414l-7.5-7.5   c-0.391-0.391-1.023-0.391-1.414,0s-0.391,1.023,0,1.414L49.293,65.707z"></path></g></svg>