<svg xmlns="http://www.w3.org/2000/svg" viewBox="0 0 100 100"><path d="M91.5 35v-.272l-7.596-20.255a1.498 1.498 0 0 0-1.654-.951c-.071-.011-64.107.012-64.256.064a1.497 1.497 0 0 0-1.898.886L8.5 34.728V35c0 3.966 2.018 7.469 5.081 9.537-.049.147-.081.3-.081.463v38.5H10a1.5 1.5 0 1 0 0 3h80a1.5 1.5 0 0 0 0-3h-3.5V45a1.48 1.48 0 0 0-.08-.463c3.062-2.068 5.08-5.571 5.08-9.537zm-3.004.261C88.357 39.828 84.6 43.5 80 43.5c-4.687 0-8.5-3.813-8.5-8.5 0-.032-.008-.063-.01-.095-.002-.031.002-.061-.002-.091L69.199 16.5h12.262l7.035 18.761zM33.824 16.5H48.5V35c0 4.687-3.813 8.5-8.5 8.5-4.665 0-8.461-3.778-8.497-8.435L33.824 16.5zm17.676 0h14.676l2.321 18.565C68.461 39.722 64.664 43.5 60 43.5c-4.687 0-8.5-3.813-8.5-8.5V16.5zM11.504 35.261L18.54 16.5h12.261l-2.289 18.314c-.004.031 0 .061-.002.092-.003.032-.01.062-.01.094 0 4.687-3.813 8.5-8.5 8.5-4.6 0-8.357-3.672-8.496-8.239zM64 83.5v-32h14.5v32H64zm19.5 0h-2V51c0-1.378-1.121-2.5-2.5-2.5H63.5A2.503 2.503 0 0 0 61 51v32.5H16.5V45.951a11.44 11.44 0 0 0 3.5.549c4.284 0 8.021-2.359 10-5.842 1.979 3.483 5.716 5.842 10 5.842s8.021-2.359 10-5.842c1.979 3.483 5.716 5.842 10 5.842s8.021-2.359 10-5.842c1.979 3.483 5.716 5.842 10 5.842a11.44 11.44 0 0 0 3.5-.549V83.5z"/><path d="M54 51H23.5a2.503 2.503 0 0 0-2.5 2.5V74c0 1.379 1.122 2.5 2.5 2.5H54c1.379 0 2.5-1.121 2.5-2.5V53.5c0-1.379-1.121-2.5-2.5-2.5zm-.5 22.5H24V54h29.5v19.5zM70 66h-2.5a1.5 1.5 0 0 0 0 3H70a1.5 1.5 0 0 0 0-3z"/><path d="M49.293 60.707a.997.997 0 0 0 1.414 0 .999.999 0 0 0 0-1.414l-2.5-2.5a.999.999 0 1 0-1.414 1.414l2.5 2.5zM49.293 65.707a.997.997 0 0 0 1.414 0 .999.999 0 0 0 0-1.414l-7.5-7.5a.999.999 0 1 0-1.414 1.414l7.5 7.5z"/></svg>