<svg xmlns="http://www.w3.org/2000/svg" width="30.729" height="30.728" viewBox="0 0 30.729 30.728" fill="#ffc107"><path d="M15.373 7.571a7.775 7.775 0 1 1 0 15.55 7.777 7.777 0 0 1-7.78-7.775 7.777 7.777 0 0 1 7.78-7.775zm5.58 7.775a5.547 5.547 0 0 0-1.638-3.947 5.552 5.552 0 0 0-3.942-1.633 5.557 5.557 0 0 0-3.947 1.633 5.55 5.55 0 0 0-1.638 3.947c0 1.545.623 2.933 1.638 3.947a5.555 5.555 0 0 0 3.947 1.633 5.55 5.55 0 0 0 3.942-1.633 5.546 5.546 0 0 0 1.638-3.947zm-12.56 6.99c.426.43.426 1.123 0 1.553l-2.366 2.366a1.105 1.105 0 0 1-1.554 0 1.105 1.105 0 0 1 0-1.554l2.366-2.366a1.106 1.106 0 0 1 1.554 0zm8.07 3.981v3.36c-.06 1.402-2.137 1.402-2.197 0v-3.36c.06-1.403 2.136-1.403 2.196 0zm9.79-1.615c1.035 1.033-.515 2.587-1.55 1.554l-2.367-2.366c-1.036-1.033.514-2.587 1.55-1.554zm3.424-10.436c1.403.06 1.403 2.136 0 2.196h-3.34c-1.404-.06-1.404-2.136 0-2.196zm-3.425-9.812c.43.43.43 1.124 0 1.554l-2.344 2.344c-1.033 1.036-2.587-.514-1.554-1.55l2.348-2.348a1.1 1.1 0 0 1 1.55 0zm-9.79-3.402v3.32c-.06 1.402-2.136 1.402-2.196 0v-3.32c.06-1.403 2.136-1.403 2.196 0zM8.375 6.825a1.1 1.1 0 0 1-.004 1.554 1.1 1.1 0 0 1-1.554-.009L4.473 6.004C3.443 4.965 5 3.42 6.031 4.458zM4.39 14.266c.61 0 1.098.492 1.098 1.098 0 .606-.487 1.098-1.098 1.098H1.052c-1.403-.06-1.403-2.136 0-2.196z"/></svg>