<svg fill="#E82127" xmlns="http://www.w3.org/2000/svg" viewBox="0 0 100 100"><path d="M74.036 95h-51.97v-2.387c0-.838.68-1.518 1.518-1.518h48.934c.838 0 1.518.68 1.518 1.518V95zM57.519 25.525v35.973c0 5.109-4.157 9.267-9.267 9.267-5.11 0-9.267-4.157-9.267-9.267V25.525c0-1.169.952-2.121 2.121-2.121h14.291c1.17 0 2.122.951 2.122 2.121zm14.396 60.913V90H23.986v-3.562c0-.596.764-1.438 2.014-1.438h2.945V24.498l-.031-.009a.673.673 0 0 1-.517-.645V8.622c0-.334.137-.639.377-.836C29.79 6.948 33.721 5 48.252 5c14.859 0 18.643 2.01 19.58 2.875a.877.877 0 0 1 .275.646v15.283c0 .321-.22.596-.548.69V85H69c2.217 0 2.915.644 2.915 1.438zM37 61.498c0 6.23 5.05 11.28 11.28 11.28 6.23 0 11.28-5.05 11.28-11.28V25.525a4.135 4.135 0 0 0-4.135-4.135h-14.29A4.135 4.135 0 0 0 37 25.525v35.973zM32.5 85V27.257c0-.642-.806-1.442-1.7-2.019a9.767 9.767 0 0 0-.855-.398V85H32.5zm34.06 0V24.85c-.17.072-.346.154-.524.242-.982.592-1.91 1.459-1.91 2.165V85h2.434zM42.492 48.069a.255.255 0 0 0 .254.275L47 47.183c.156 0 .275.139.251.294L44.004 63.05c-.046.292.359.414.482.146l10.49-23.49a.254.254 0 0 0-.231-.361l-3.482 1.359a.255.255 0 0 1-.238-.345l2.212-13.014A.254.254 0 0 0 53 27L42.492 48.069z"/></svg>