<svg fill="#E82127" xmlns="http://www.w3.org/2000/svg" xmlns:xlink="http://www.w3.org/1999/xlink" version="1.1" x="0px" y="0px" viewBox="0 0 100 100" enable-background="new 0 0 100 100" xml:space="preserve"><path d="M74.036,95h-51.97v-2.387c0-0.838,0.68-1.518,1.518-1.518h48.934c0.838,0,1.518,0.68,1.518,1.518V95z M57.519,25.525v35.973  c0,5.109-4.157,9.267-9.267,9.267c-5.11,0-9.267-4.157-9.267-9.267V25.525c0-1.169,0.952-2.121,2.121-2.121h14.291  C56.567,23.404,57.519,24.355,57.519,25.525z M71.915,86.438V90H23.986v-3.562C23.986,85.842,24.75,85,26,85  c0.185,0,1.258,0,2.945,0V24.498c-0.01-0.003-0.021-0.006-0.031-0.009c-0.305-0.078-0.517-0.343-0.517-0.645V8.622  c0-0.334,0.137-0.639,0.377-0.836C29.79,6.948,33.721,5,48.252,5c14.859,0,18.643,2.01,19.58,2.875  c0.175,0.161,0.275,0.397,0.275,0.646v15.283c0,0.321-0.22,0.596-0.548,0.69V85C68.48,85,69,85,69,85  C71.217,85,71.915,85.644,71.915,86.438z M37,61.498c0,6.23,5.05,11.28,11.28,11.28c6.23,0,11.28-5.05,11.28-11.28V25.525  c0-2.284-1.851-4.135-4.135-4.135h-14.29c-2.284,0-4.135,1.851-4.135,4.135V61.498z M32.5,85V27.257c0-0.642-0.806-1.442-1.7-2.019  c-0.29-0.152-0.579-0.286-0.855-0.398V85C30.711,85,31.567,85,32.5,85z M66.56,85V24.85c-0.17,0.072-0.346,0.154-0.524,0.242  c-0.982,0.592-1.91,1.459-1.91,2.165V85C65.051,85,65.869,85,66.56,85z M42.492,48.069c-0.012,0.148,0.105,0.275,0.254,0.275  L47,47.183c0.156,0,0.275,0.139,0.251,0.294L44.004,63.05c-0.046,0.292,0.359,0.414,0.482,0.146l10.49-23.49  c0.078-0.169-0.045-0.361-0.231-0.361l-3.482,1.359c-0.178,0-0.301-0.178-0.238-0.345l2.212-13.014C53.301,27.178,53.178,27,53,27  L42.492,48.069z"></path></svg>